<svg xmlns="http://www.w3.org/2000/svg" xmlns:xlink="http://www.w3.org/1999/xlink" viewBox="0 0 1221 766"><defs><linearGradient id="a" x1="48.8%" x2="61.5%" y1="54%" y2="17.6%"><stop offset="0%" stop-color="#AE3CD3"/><stop offset="100%" stop-color="#7715A0"/></linearGradient><linearGradient id="b" x1="38.6%" x2="67.4%" y1="111.8%" y2="-41.5%"><stop offset="0%" stop-color="#FFC91D"/><stop offset="100%" stop-color="#FF991F"/></linearGradient><linearGradient id="c" x1="46.3%" x2="54.3%" y1="95.8%" y2="-9.4%"><stop offset="0%" stop-color="#AE3CD3"/><stop offset="100%" stop-color="#7715A0"/></linearGradient><linearGradient id="d" x1="46.8%" x2="52.7%" y1="102.2%" y2="-9.7%"><stop offset="0%" stop-color="#FFC91D"/><stop offset="100%" stop-color="#FF991F"/></linearGradient><linearGradient id="e" x1="50.6%" x2="49.4%" y1="71.5%" y2="-16.6%"><stop offset="0%" stop-color="#FF4848"/><stop offset="100%" stop-color="#E51717"/></linearGradient><linearGradient id="f" x1="107.4%" x2="-2.1%" y1="52.9%" y2="47%"><stop offset="0%" stop-color="#FF4848"/><stop offset="100%" stop-color="#E51717"/></linearGradient><linearGradient id="g" x1="59.1%" x2="71.2%" y1="45.1%" y2="38.3%"><stop offset="0%" stop-color="#AE3CD3"/><stop offset="100%" stop-color="#7715A0"/></linearGradient><linearGradient id="h" x1="85.1%" x2="6.7%" y1="45%" y2="53.5%"><stop offset="0%" stop-color="#FF4848"/><stop offset="100%" stop-color="#E51717"/></linearGradient><linearGradient id="i" x1="77.8%" x2="90.5%" y1="-42.6%" y2="-84.6%"><stop offset="0%" stop-color="#AE3CD3"/><stop offset="100%" stop-color="#7715A0"/></linearGradient><linearGradient id="j" x1="5.8%" x2="88.8%" y1="77.1%" y2="18.6%"><stop offset="0%" stop-color="#FF991F"/><stop offset="100%" stop-color="#FFC91D"/></linearGradient><linearGradient id="k" x1="65.5%" x2="70.7%" y1="-251%" y2="-345.9%"><stop offset="0%" stop-color="#AE3CD3"/><stop offset="100%" stop-color="#7715A0"/></linearGradient><linearGradient id="l" x1="50.2%" x2="49.2%" y1="95%" y2="-2.1%"><stop offset="0%" stop-color="#00B2A9"/><stop offset="100%" stop-color="#3BFFFF"/></linearGradient><linearGradient id="m" x1="64.7%" x2="69.8%" y1="-202.8%" y2="-288.8%"><stop offset="0%" stop-color="#AE3CD3"/><stop offset="100%" stop-color="#7715A0"/></linearGradient><linearGradient id="n" x1="87.1%" x2="9.3%" y1="89%" y2="-2.6%"><stop offset="0%" stop-color="#FF991F"/><stop offset="100%" stop-color="#FFC91D"/></linearGradient><linearGradient id="o" x1="76.6%" x2="90.3%" y1="-25.7%" y2="-64.6%"><stop offset="0%" stop-color="#FF4848"/><stop offset="100%" stop-color="#E51717"/></linearGradient><linearGradient id="p" x1="20.2%" x2="105.4%" y1="50.3%" y2="49.3%"><stop offset="0%" stop-color="#FF4848"/><stop offset="100%" stop-color="#E51717"/></linearGradient><linearGradient id="q" x1=".3%" x2="94.1%" y1="57.7%" y2="42.2%"><stop offset="0%" stop-color="#FF4848"/><stop offset="100%" stop-color="#E51717"/></linearGradient><linearGradient id="r" x1="49.2%" x2="98.9%" y1="48.2%" y2="5%"><stop offset="0%" stop-color="#3BFFFF"/><stop offset="19.2%" stop-color="#2CEBE8"/><stop offset="53.4%" stop-color="#14CCC6"/><stop offset="81.6%" stop-color="#05B9B1"/><stop offset="100%" stop-color="#00B2A9"/></linearGradient><linearGradient id="s" x1="44.7%" x2="56.9%" y1="89.7%" y2="-10.7%"><stop offset="0%" stop-color="#FF4848"/><stop offset="100%" stop-color="#E51717"/></linearGradient><linearGradient id="t" x1="44.6%" x2="63.4%" y1="67.2%" y2="10.9%"><stop offset="0%" stop-color="#FFC91D"/><stop offset="17%" stop-color="#FFBF1D"/><stop offset="69.4%" stop-color="#FFA31F"/><stop offset="100%" stop-color="#FF991F"/></linearGradient><linearGradient id="u" x1="9.5%" x2="84.2%" y1="75.8%" y2="22.7%"><stop offset="0%" stop-color="#FFC91D"/><stop offset="17%" stop-color="#FFBF1D"/><stop offset="69.4%" stop-color="#FFA31F"/><stop offset="100%" stop-color="#FF991F"/></linearGradient><linearGradient id="v" x1="1.7%" x2="70.5%" y1="100.4%" y2="10.2%"><stop offset="0%" stop-color="#3BFFFF"/><stop offset="100%" stop-color="#00B2A9"/></linearGradient><linearGradient id="w" x1="93.2%" x2="2.9%" y1="54.6%" y2="44.6%"><stop offset="0%" stop-color="#3BFFFF"/><stop offset="100%" stop-color="#00B2A9"/></linearGradient><linearGradient id="x" x1="96.3%" x2="4.4%" y1="52.6%" y2="47.5%"><stop offset="0%" stop-color="#FFC91D"/><stop offset="100%" stop-color="#FF991F"/></linearGradient><linearGradient id="y" x1="-2.4%" x2="83.9%" y1="52.2%" y2="47.4%"><stop offset="0%" stop-color="#FF991F"/><stop offset="100%" stop-color="#FFC91D"/></linearGradient><linearGradient id="z" x1="3.2%" x2="75.4%" y1="69.1%" y2="33.3%"><stop offset="0%" stop-color="#00B2A9"/><stop offset="100%" stop-color="#3BFFFF"/></linearGradient><linearGradient id="A" x1="64.6%" x2="8.9%" y1="26.8%" y2="99.1%"><stop offset="0%" stop-color="#FF4848"/><stop offset="100%" stop-color="#E51717"/></linearGradient><linearGradient id="B" x1="66.3%" x2=".9%" y1="22.7%" y2="113.2%"><stop offset="0%" stop-color="#FF4848"/><stop offset="100%" stop-color="#E51717"/></linearGradient><linearGradient id="C" x1=".6%" x2="82.8%" y1="115.6%" y2="8.3%"><stop offset="0%" stop-color="#00B2A9"/><stop offset="100%" stop-color="#3BFFFF"/></linearGradient><linearGradient id="D" x1="120.1%" x2="149.5%" y1="-307.2%" y2="-456%"><stop offset="0%" stop-color="#AE3CD3"/><stop offset="100%" stop-color="#7715A0"/></linearGradient><linearGradient id="E" x1="91.2%" x2="105.3%" y1="-375.6%" y2="-520.1%"><stop offset="0%" stop-color="#FF4848"/><stop offset="100%" stop-color="#E51717"/></linearGradient><linearGradient id="F" x1="48.9%" x2="51%" y1="100.8%" y2="-5.6%"><stop offset="0%" stop-color="#FF991F"/><stop offset="100%" stop-color="#FFC91D"/></linearGradient><linearGradient id="G" x1="68.1%" x2="30.6%" y1="87.3%" y2="-7.2%"><stop offset="0%" stop-color="#FF991F"/><stop offset="100%" stop-color="#FFC91D"/></linearGradient><linearGradient id="H" x1="74.5%" x2="23.3%" y1="87.1%" y2="-7.7%"><stop offset="0%" stop-color="#FF991F"/><stop offset="100%" stop-color="#FFC91D"/></linearGradient><linearGradient id="I" x1="68.2%" x2="81.6%" y1="37.3%" y2="28%"><stop offset="0%" stop-color="#AE3CD3"/><stop offset="100%" stop-color="#7715A0"/></linearGradient><linearGradient id="J" x1="56.6%" x2="71.3%" y1="45.8%" y2="36.1%"><stop offset="0%" stop-color="#AE3CD3"/><stop offset="100%" stop-color="#7715A0"/></linearGradient><linearGradient id="K" x1="94.6%" x2="5.8%" y1="51.3%" y2="48%"><stop offset="0%" stop-color="#FF991F"/><stop offset="100%" stop-color="#FFC91D"/></linearGradient><linearGradient id="L" x1="96.4%" x2="9.6%" y1="69.1%" y2="26.1%"><stop offset="0%" stop-color="#FF991F"/><stop offset="100%" stop-color="#FFC91D"/></linearGradient><linearGradient id="M" x1="93.3%" x2="9%" y1="63%" y2="36.5%"><stop offset="0%" stop-color="#FF991F"/><stop offset="100%" stop-color="#FFC91D"/></linearGradient><linearGradient id="N" x1="78.3%" x2=".6%" y1="79.6%" y2="3.3%"><stop offset="0%" stop-color="#00B2A9"/><stop offset="100%" stop-color="#3BFFFF"/></linearGradient><linearGradient id="O" x1="62.9%" x2="25.8%" y1="98.5%" y2="-6.2%"><stop offset="0%" stop-color="#00B2A9"/><stop offset="100%" stop-color="#3BFFFF"/></linearGradient><linearGradient id="P" x1="57.3%" x2="31.6%" y1="99.9%" y2="-17.7%"><stop offset="0%" stop-color="#FF991F"/><stop offset="100%" stop-color="#FFC91D"/></linearGradient><linearGradient id="Q" x1="81%" x2="-6.4%" y1="84.1%" y2="5.3%"><stop offset="0%" stop-color="#FF991F"/><stop offset="100%" stop-color="#FFC91D"/></linearGradient><linearGradient id="R" x1="13%" x2="94%" y1="83.5%" y2="9.5%"><stop offset="0%" stop-color="#FF991F"/><stop offset="100%" stop-color="#FFC91D"/></linearGradient><linearGradient id="S" x1="95.8%" x2="107.8%" y1="-800.8%" y2="-1027.9%"><stop offset="0%" stop-color="#AE3CD3"/><stop offset="100%" stop-color="#7715A0"/></linearGradient><linearGradient id="T" x1="50.4%" x2="49.9%" y1="114.7%" y2="16%"><stop offset="0%" stop-color="#E51717"/><stop offset="100%" stop-color="#FF4848"/></linearGradient><linearGradient id="U" x1="39%" x2="62.8%" y1="98.5%" y2="-3.3%"><stop offset="0%" stop-color="#FF991F"/><stop offset="100%" stop-color="#FFC91D"/></linearGradient><linearGradient id="V" x1="228.2%" x2="297.8%" y1="-963.8%" y2="-1358.4%"><stop offset="0%" stop-color="#AE3CD3"/><stop offset="100%" stop-color="#7715A0"/></linearGradient><linearGradient id="W" x1="84.7%" x2="-7.8%" y1="56%" y2="38.8%"><stop offset="0%" stop-color="#00B2A9"/><stop offset="100%" stop-color="#3BFFFF"/></linearGradient><linearGradient id="X" x1="257%" x2="315%" y1="-1153.9%" y2="-1489.9%"><stop offset="0%" stop-color="#AE3CD3"/><stop offset="100%" stop-color="#7715A0"/></linearGradient><linearGradient id="Y" x1="4.1%" x2="99.3%" y1="53.8%" y2="42.8%"><stop offset="0%" stop-color="#00B2A9"/><stop offset="100%" stop-color="#3BFFFF"/></linearGradient><linearGradient id="Z" x1="9.6%" x2="104.7%" y1="66.4%" y2="22%"><stop offset="0%" stop-color="#FF991F"/><stop offset="100%" stop-color="#FFC91D"/></linearGradient><linearGradient id="aa" x1="86.7%" x2="-24.3%" y1="62.6%" y2="27.6%"><stop offset="0%" stop-color="#FF4848"/><stop offset="100%" stop-color="#E51717"/></linearGradient><linearGradient id="ab" x1="54%" x2="93.8%" y1="46.4%" y2="7.5%"><stop offset="0%" stop-color="#AE3CD3"/><stop offset="100%" stop-color="#7715A0"/></linearGradient><linearGradient id="ac" x1="102.5%" x2="9.6%" y1="60.8%" y2="41.1%"><stop offset="0%" stop-color="#FFC91D"/><stop offset="100%" stop-color="#FF991F"/></linearGradient><linearGradient id="ad" x1="-15.2%" x2="29.1%" y1="333.2%" y2="142.5%"><stop offset="0%" stop-color="#AE3CD3"/><stop offset="100%" stop-color="#7715A0"/></linearGradient><linearGradient id="ae" x1="5.8%" x2="113.5%" y1="61.5%" y2="35.5%"><stop offset="0%" stop-color="#FFC91D"/><stop offset="17%" stop-color="#FFBF1D"/><stop offset="69.4%" stop-color="#FFA31F"/><stop offset="100%" stop-color="#FF991F"/></linearGradient><linearGradient id="af" x1="7.9%" x2="59.7%" y1="175.8%" y2="23.9%"><stop offset="0%" stop-color="#AE3CD3"/><stop offset="100%" stop-color="#7715A0"/></linearGradient><linearGradient id="ag" x1="89%" x2="-15.2%" y1="50.3%" y2="48.7%"><stop offset="0%" stop-color="#00B2A9"/><stop offset="100%" stop-color="#3BFFFF"/></linearGradient><linearGradient id="ah" x1="0%" y1="50%" y2="50%"><stop offset="0%" stop-color="#00B2A9"/><stop offset="100%" stop-color="#3BFFFF"/></linearGradient><linearGradient id="ai" x1="115.1%" x2="9.3%" y1="84.3%" y2="25.8%"><stop offset="0%" stop-color="#FFC91D"/><stop offset="100%" stop-color="#FF991F"/></linearGradient><linearGradient id="aj" x1="2.8%" x2="98.9%" y1="52.7%" y2="47.4%"><stop offset="0%" stop-color="#FFC91D"/><stop offset="100%" stop-color="#FF991F"/></linearGradient><linearGradient id="ak" x1="5.4%" x2="105.9%" y1="50.5%" y2="49.7%"><stop offset="0%" stop-color="#FF4848"/><stop offset="100%" stop-color="#E51717"/></linearGradient><linearGradient id="al" x1="4.9%" x2="99.4%" y1="59.9%" y2="38.7%"><stop offset="0%" stop-color="#FF4848"/><stop offset="100%" stop-color="#E51717"/></linearGradient><linearGradient id="am" x1="48.7%" x2="51.2%" y1="95.7%" y2="-2%"><stop offset="0%" stop-color="#FFC91D"/><stop offset="100%" stop-color="#FF991F"/></linearGradient><linearGradient id="an" x1="65.4%" x2="36.1%" y1="91.1%" y2="3.8%"><stop offset="0%" stop-color="#3BFFFF"/><stop offset="100%" stop-color="#00B2A9"/></linearGradient><linearGradient id="ao" x1="93.9%" x2=".6%" y1="52.4%" y2="45.5%"><stop offset="0%" stop-color="#FF991F"/><stop offset="100%" stop-color="#FFC91D"/></linearGradient><linearGradient id="ap" x1="4.7%" x2="98.6%" y1="52%" y2="46.7%"><stop offset="0%" stop-color="#FF991F"/><stop offset="100%" stop-color="#FFC91D"/></linearGradient><linearGradient id="aq" x1="8.5%" x2="91%" y1="59.3%" y2="39.2%"><stop offset="0%" stop-color="#00B2A9"/><stop offset="100%" stop-color="#3BFFFF"/></linearGradient><linearGradient id="ar" x1="50.8%" x2="48.6%" y1="89.4%" y2="-13.2%"><stop offset="0%" stop-color="#E51717"/><stop offset="100%" stop-color="#FF4848"/></linearGradient><linearGradient id="as" x1="50.8%" x2="49.6%" y1="77.8%" y2="35.4%"><stop offset="0%" stop-color="#FF991F"/><stop offset="100%" stop-color="#FFC91D"/></linearGradient><linearGradient id="at" x1="50.8%" x2="49.6%" y1="78%" y2="35.3%"><stop offset="0%" stop-color="#00B2A9"/><stop offset="100%" stop-color="#3BFFFF"/></linearGradient><linearGradient id="au" x1="50.9%" x2="49.7%" y1="77.9%" y2="35.2%"><stop offset="0%" stop-color="#FF991F"/><stop offset="100%" stop-color="#FFC91D"/></linearGradient><linearGradient id="av" x1="50.6%" x2="49.4%" y1="77.8%" y2="35.2%"><stop offset="0%" stop-color="#E51717"/><stop offset="100%" stop-color="#FF4848"/></linearGradient><linearGradient id="aw" x1="50.9%" x2="49.7%" y1="77.8%" y2="35.3%"><stop offset="0%" stop-color="#FF991F"/><stop offset="100%" stop-color="#FFC91D"/></linearGradient><linearGradient id="ax" x1="50.8%" x2="49.6%" y1="77.8%" y2="35.2%"><stop offset="0%" stop-color="#E51717"/><stop offset="100%" stop-color="#FF4848"/></linearGradient><linearGradient id="ay" x1="50.7%" x2="49.5%" y1="78%" y2="35.3%"><stop offset="0%" stop-color="#E51717"/><stop offset="100%" stop-color="#FF4848"/></linearGradient><linearGradient id="az" x1="50.9%" x2="49.7%" y1="78.1%" y2="35.3%"><stop offset="0%" stop-color="#00B2A9"/><stop offset="100%" stop-color="#3BFFFF"/></linearGradient><linearGradient id="aA" x1="50.9%" x2="49.7%" y1="77.9%" y2="35.3%"><stop offset="0%" stop-color="#FF991F"/><stop offset="100%" stop-color="#FFC91D"/></linearGradient><linearGradient id="aB" x1="50.8%" x2="49.6%" y1="77.9%" y2="35.2%"><stop offset="0%" stop-color="#E51717"/><stop offset="100%" stop-color="#FF4848"/></linearGradient><linearGradient id="aC" x1="51%" x2="49.8%" y1="77.8%" y2="35.3%"><stop offset="0%" stop-color="#FF991F"/><stop offset="100%" stop-color="#FFC91D"/></linearGradient><linearGradient id="aD" x1="50.9%" x2="49.8%" y1="77.7%" y2="35.3%"><stop offset="0%" stop-color="#E51717"/><stop offset="100%" stop-color="#FF4848"/></linearGradient><linearGradient id="aE" x1="51%" x2="49.8%" y1="77.8%" y2="35.3%"><stop offset="0%" stop-color="#E51717"/><stop offset="100%" stop-color="#FF4848"/></linearGradient><linearGradient id="aF" x1="50.3%" x2="49.1%" y1="78.2%" y2="35.2%"><stop offset="0%" stop-color="#E51717"/><stop offset="100%" stop-color="#FF4848"/></linearGradient><linearGradient id="aG" x1="50.6%" x2="49.4%" y1="77.9%" y2="35.3%"><stop offset="0%" stop-color="#FF991F"/><stop offset="100%" stop-color="#FFC91D"/></linearGradient><linearGradient id="aH" x1="50.8%" x2="49.6%" y1="77.8%" y2="35.3%"><stop offset="0%" stop-color="#AE3CD3"/><stop offset="100%" stop-color="#7715A0"/></linearGradient><linearGradient id="aI" x1="50.7%" x2="49.5%" y1="78%" y2="35.2%"><stop offset="0%" stop-color="#E51717"/><stop offset="100%" stop-color="#FF4848"/></linearGradient><linearGradient id="aJ" x1="50.6%" x2="49.5%" y1="77.7%" y2="35.4%"><stop offset="0%" stop-color="#FF991F"/><stop offset="100%" stop-color="#FFC91D"/></linearGradient><linearGradient id="aK" x1="50.7%" x2="49.5%" y1="77.9%" y2="35.3%"><stop offset="0%" stop-color="#00B2A9"/><stop offset="100%" stop-color="#3BFFFF"/></linearGradient><linearGradient id="aL" x1="50.7%" x2="49.5%" y1="77.9%" y2="35.3%"><stop offset="0%" stop-color="#E51717"/><stop offset="100%" stop-color="#FF4848"/></linearGradient><linearGradient id="aM" x1="50.8%" x2="49.6%" y1="77.9%" y2="35.3%"><stop offset="0%" stop-color="#FF991F"/><stop offset="100%" stop-color="#FFC91D"/></linearGradient><linearGradient id="aN" x1="50.6%" x2="49.4%" y1="77.9%" y2="35.1%"><stop offset="0%" stop-color="#AE3CD3"/><stop offset="100%" stop-color="#7715A0"/></linearGradient><linearGradient id="aO" x1="50.8%" x2="49.6%" y1="78%" y2="35.2%"><stop offset="0%" stop-color="#E51717"/><stop offset="100%" stop-color="#FF4848"/></linearGradient><linearGradient id="aP" x1="50.5%" x2="49.3%" y1="78%" y2="35.4%"><stop offset="0%" stop-color="#FF991F"/><stop offset="100%" stop-color="#FFC91D"/></linearGradient><linearGradient id="aQ" x1="50.6%" x2="49.4%" y1="78.1%" y2="35.2%"><stop offset="0%" stop-color="#00B2A9"/><stop offset="100%" stop-color="#3BFFFF"/></linearGradient><linearGradient id="aR" x1="50.3%" x2="49.1%" y1="77.8%" y2="35.3%"><stop offset="0%" stop-color="#AE3CD3"/><stop offset="100%" stop-color="#7715A0"/></linearGradient><linearGradient id="aS" x1="51%" x2="49.8%" y1="78%" y2="35.3%"><stop offset="0%" stop-color="#E51717"/><stop offset="100%" stop-color="#FF4848"/></linearGradient><linearGradient id="aT" x1="51%" x2="49.8%" y1="78.1%" y2="35.3%"><stop offset="0%" stop-color="#E51717"/><stop offset="100%" stop-color="#FF4848"/></linearGradient><linearGradient id="aU" x1="51.1%" x2="49.9%" y1="77.9%" y2="35.5%"><stop offset="0%" stop-color="#00B2A9"/><stop offset="100%" stop-color="#3BFFFF"/></linearGradient><linearGradient id="aV" x1="51.1%" x2="49.9%" y1="77.7%" y2="35.2%"><stop offset="0%" stop-color="#E51717"/><stop offset="100%" stop-color="#FF4848"/></linearGradient><linearGradient id="aW" x1="50.8%" x2="49.6%" y1="77.9%" y2="35.4%"><stop offset="0%" stop-color="#00B2A9"/><stop offset="100%" stop-color="#3BFFFF"/></linearGradient><linearGradient id="aX" x1="51.1%" x2="49.9%" y1="77.9%" y2="35.4%"><stop offset="0%" stop-color="#E51717"/><stop offset="100%" stop-color="#FF4848"/></linearGradient><linearGradient id="aY" x1="50.6%" x2="49.4%" y1="77.9%" y2="35.4%"><stop offset="0%" stop-color="#AE3CD3"/><stop offset="100%" stop-color="#7715A0"/></linearGradient><linearGradient id="aZ" x1="50.6%" x2="49.4%" y1="77.9%" y2="35%"><stop offset="0%" stop-color="#AE3CD3"/><stop offset="100%" stop-color="#7715A0"/></linearGradient><linearGradient id="ba" x1="50.8%" x2="49.6%" y1="77.8%" y2="35.3%"><stop offset="0%" stop-color="#E51717"/><stop offset="100%" stop-color="#FF4848"/></linearGradient><linearGradient id="bb" x1="50.6%" x2="49.4%" y1="78%" y2="35.4%"><stop offset="0%" stop-color="#00B2A9"/><stop offset="100%" stop-color="#3BFFFF"/></linearGradient><linearGradient id="bc" x1="51%" x2="49.8%" y1="77.9%" y2="35.3%"><stop offset="0%" stop-color="#E51717"/><stop offset="100%" stop-color="#FF4848"/></linearGradient><linearGradient id="bd" x1="50.5%" x2="49.3%" y1="78%" y2="35.1%"><stop offset="0%" stop-color="#FF991F"/><stop offset="100%" stop-color="#FFC91D"/></linearGradient><linearGradient id="be" x1="62.9%" x2="25.8%" y1="98.5%" y2="-6.2%"><stop offset="0%" stop-color="#00B2A9"/><stop offset="100%" stop-color="#3BFFFF"/></linearGradient><path id="bf" d="M325.8 288.6h8.5v15h22.3v7.3h-22.2V342c0 6 4.2 9.2 12 9.2 3 0 8.6-.1 10-.3v7.3c-1.3.3-8 .6-10.6.6-13.7 0-20-5.2-20-16.7v-31.2H311v-7.3h14.6v-15zm58.2 89.5c-1.3 0-3 0-3.7-.2v-7.5l3 .2c5.2 0 8-2.4 10.3-8.7l1-3-20.3-55.5h9.4l15.5 46.1h.6l15.4-46.1h9.2l-20.8 57.1c-4.8 13.6-9.4 17.6-19.6 17.6zm83.2-75.6c12.7 0 21 9.2 21 23.3v10.3c0 14.1-8.3 23.3-21 23.3-8 0-13.8-3.4-16.2-9.4h-1v27h-8.8v-73.6h8.6v8.4h.9c2.9-6 8.6-9.3 16.5-9.3zm-2.5 8c-9.1 0-14.9 6.4-14.9 16.6v7.9c0 10.2 5.8 16.7 14.9 16.7 9 0 14.9-6.6 14.9-16.7v-8c0-10-5.8-16.6-15-16.6zm64-.7c-9.3 0-14.8 6.3-14.8 16.9h29c0-10.6-5.4-16.9-14.3-16.9zm14.2 34.5h8.4c-1.7 9-10.4 15.2-22 15.2-15.2 0-24-9-24-24.8v-8.2c0-14.6 9.4-24.1 23.4-24.1 14.3 0 22.7 9.5 22.7 25.4v5.4H514v2.2c0 10.2 6 16.7 15.4 16.7 7 0 12-3 13.6-7.8zm76.3-14.3h-53.8v-8h53.8v8zm29.3 28.5v-47.6h-14.8v-7.3h14.8V298c0-10.6 6.6-15.6 20.1-15.6 3.2 0 10.9.2 12.7.5v7c-2.4-.2-9.5-.4-12.6-.4-7.6 0-11.7 2.8-11.7 8.4v5.7h24.3v7.3h-24.2v47.6h-8.6zm73-48.7c-9.2 0-14.7 6.3-14.7 16.9h29c0-10.6-5.4-16.9-14.3-16.9zm14.3 34.5h8.3c-1.6 9-10.4 15.2-22 15.2-15 0-23.9-9-23.9-24.8v-8.2c0-14.6 9.3-24.1 23.3-24.1 14.4 0 22.8 9.5 22.8 25.4v5.4h-37.5v2.2c0 10.2 6 16.7 15.3 16.7 7 0 12.1-3 13.7-7.8zm29.3-26c0-9.6 8.1-16 20.3-16 11.4 0 19.2 5.8 20.2 15h-8.3c-1-4.9-5.6-7.8-12-7.8-7 0-11.6 3.2-11.6 8.3 0 4.2 2.8 6.6 9.7 8.1l7.8 1.8c10.7 2.4 15.6 7 15.6 15 0 10.2-8.5 16.8-21.5 16.8-12.5 0-20.8-5.8-21.8-15.3h8.8c1.3 5.1 6.2 8 13.3 8 7.5 0 12.3-3.3 12.3-8.6 0-4.4-2.7-6.7-9.7-8.3l-8.2-1.9c-10-2.3-14.9-7.3-14.9-15.1zm75-29.7h8.5v15h22.3v7.3h-22.2V342c0 6 4.2 9.2 12 9.2 3 0 8.6-.1 10-.3v7.3c-1.3.3-8 .6-10.6.6-13.7 0-20-5.2-20-16.7v-31.2h-14.7v-7.3H840v-15z"/></defs><g fill="none"><path fill="url(#a)" d="M252 151.6c-1.4 2.7 2.7 5 9.2 7.4l2.5.9 2.7 1 5.8 1.8c4.1 1.1 8.3 2.4 12.4 3.7l4.7 1.4 7.6 2.6c3 1 6.4 2.1 10 3.5l5.7 2c2 .8 4.1 1.5 6.1 2.4 8.4 3.3 17.7 7 27 11.5l7.1 3.2 7 3.6 3.5 1.8 1.8.9 1.7.9 6.9 3.7 3.4 1.9a85 85 0 0 0 3.3 1.9c2.2 1.2 24.4 15.5 26.6 16.8 2.2 1.2 4.2 2.6 6.3 3.9l6.1 3.8 5.7 3.7 2.8 1.8 1.4 1 1.3.9 9.7 6.7 8.1 5.8 3.4 2.3 2.9 2c3.6 2.4-14-9.3-13.2-9.7.8-.4 19.8 10.7 17.4 7.7l-2-2.5-2.6-2.8-6.8-6.6-8.7-7.6-1.2-1-1.3-1-2.6-2-5.4-4.2-5.9-4.2-26.1-17.3-6.5-4.2-3.3-2.1-3.4-2-6.9-4.1-1.7-1-1.8-1-3.6-2a374 374 0 0 0-7.1-3.8l-7.2-3.6c-9.6-4.7-19.1-8.8-27.8-12.4l-6.3-2.5-5.9-2.2c-3.8-1.5-7.3-2.6-10.4-3.7l-7.9-2.7-4.9-1.5c-4.3-1.3-8.7-2.7-13-3.7l-6.4-1.5-3-.7-2.9-.5c-7.4-1-13-1-14.3 1.6z"/><path fill="url(#b)" d="M401.3 127c-2.7 2.2-1.6 4.5 1.2 6.9l2.3 1.8 2.7 1.9 5.9 3.7 2.3 1.5 3.6 2.4 4.7 3.3 2.7 2 2.8 2c7.7 6 16.6 13.7 24.3 21.8 7.8 8.1 14.1 16.4 18.9 22.7a110.9 110.9 0 0 0 6 7.5c1.6 1.9 3 2.9 4 2.7.9-.2 1.2-1.5 1-3.6a47.7 47.7 0 0 0-2.3-8.7c-2.7-7-7.9-16.3-15.1-25.2-7.1-9-16.1-17.6-24.1-24l-2.9-2.3-2.8-2.1c-1.7-1.4-3.5-2.6-5-3.7l-3.8-2.6-2.4-1.6c-2.1-1.3-4.3-2.7-6.6-3.8a40.2 40.2 0 0 0-6.7-3c-4.4-1.5-8.2-1.8-10.7.3z"/><path fill="url(#c)" d="M504 106.5c-3.6 1.5-3.2 4.6-1 8.4l1.9 3 2.3 3.1 5.2 6.6 2 2.5 3 4.2c1.2 1.6 2.6 3.5 3.9 5.6l2.2 3.3a213 213 0 0 1 19.8 38.5l.9 2.4.8 2.3 1.7 4.7 1.4 4.6 1.4 4.4 2.3 8.5a171 171 0 0 1 1.8 7.6c.5 2.4 11 35.5 11.5 37.4l.7 2.7.6 2.3c.9 2.8 1.8 4.4 2.8 4.4 1 0 1.8-1.6 2.4-4.4l.5-2.4.4-2.8c.2-2-7.5-34.8-7.4-37.2l-5.2-26.7-1.2-5-.6-2.4-.7-2.5-1.6-5-.4-1.2-.5-1.3a98 98 0 0 0-.9-2.4l-1.9-4.9-2.1-4.8a193.8 193.8 0 0 0-11.2-21.1l-2.2-3.5c-1.3-2.2-2.8-4.2-4-5.9l-3.1-4.4-2-2.6c-1.8-2.3-3.6-4.7-5.7-6.8a134.9 134.9 0 0 0-6.1-5.8c-4.3-3-8.3-4.7-11.7-3.4z"/><path fill="url(#d)" d="M656.5 114.6c-8.5-1.1-11.3 9-13.7 18a480.5 480.5 0 0 0-11.6 53.2c-1.9 11.9-3.2 23.6-3.5 32.3-.3 8.7.5 14.5 2.5 14.7 1.9 0 4.2-5.5 6.7-14 2.6-8.6 5.4-20 8.4-31.8 3-11.7 6.1-23.8 8.7-33.3l5.2-19.1c2.6-9 5.2-19-2.7-20z"/><path fill="url(#e)" d="M575.3 17.2c-4.3 1-5.2 3.8-4.6 7.3l.7 2.9 1 3 2.5 6.3.9 2.4 1.4 4c.5 1.6 1.2 3.4 1.7 5.3l.9 3.1.9 3.4c2.4 9.2 4.3 20.8 4.8 32.3.6 11.5-.2 22.7-.9 31.1l-.5 5.8-.2 4.5c.1 2.5.6 4 1.6 4.1 1 .2 2.3-1.1 3.8-3.4.7-1.2 1.7-2.6 2.4-4.3l2.5-5.7c3.2-8.4 5.9-20 6.4-32a127.6 127.6 0 0 0-3.6-37.7l-.8-3.3c-.5-2-1.2-4-1.7-5.6l-1.4-4.2-1-2.6c-.9-2.2-1.7-4.5-2.9-6.6l-1.8-3a19 19 0 0 0-2-2.8c-2.8-3.3-6.1-5.2-10.1-4.3z"/><path fill="url(#f)" d="M176.4 218.1c.4 2.8 3.3 4 7.4 4.6a45.7 45.7 0 0 0 6.7.5l7.4.2h2.8l4.6.2 6.2.4 3.6.2 3.8.3c10.6 1 23.6 2.9 36 5.5 12.5 2.6 24.2 6 33 8.5l6 1.8c1.8.5 3.4 1 4.8 1.2 2.7.7 4.6.8 5.2.2.6-.5-.3-1.5-2.2-3l-3.7-2.5-5.3-2.9-6.7-3.1-7.9-3.2-8.8-3-4.7-1.5-4.8-1.4c-13-3.5-27-6-38.4-7.3l-4.2-.4-3.9-.3c-2.5-.3-4.7-.4-6.7-.5l-5.1-.3h-3.1c-2.7 0-5.5-.2-8.1 0l-3.8.2c-1.2.2-2.4.3-3.5.6-4.2.9-7 2.4-6.6 5z"/><path fill="url(#g)" d="M69.9 303.5c1.5 2.6 6.3 3 12.4 2.4l2.4-.3 2.5-.3 5.2-.9 11-1.9 4.2-.7 6.9-1 9.2-1.3 5.4-.6 5.8-.7c8-.8 17.1-1.6 26.7-2l7.2-.4 7.4-.2h3.7l1.9-.1h16.8l7.3.2 7.2.3c2.4 0 4.7 0 7 .2l6.7.4 6.4.4 11.7 1a394 394 0 0 0 14 1l3.5.3c4.3.2 6.9 0 7.1-.6.3-.6-1.8-1.6-5.8-2.7l-3.3-1-4-1a410.9 410.9 0 0 0-21.5-4l-6.5-.9-6.9-.8-7.2-.7-7.4-.7-7.6-.5c-1.3 0-2.6 0-3.9-.2l-3.9-.1-7.8-.3h-15.5l-7.6.1c-10.1.3-19.6 1-28.1 1.7-2.1 0-4.2.4-6.1.6l-5.7.5-9.8 1.3-7.3 1-4.4.8a113.2 113.2 0 0 0-16.8 3.5l-2.5.6-2.2.8c-5.8 2.2-9.2 4.4-7.8 6.8z"/><path fill="url(#h)" d="M88 424.5c3.1 2 7.6 1.1 12.7-1.1l1.9-1 2.1-1 4.2-2.1 8.7-4.7 3.4-1.8 5.6-2.8c2.2-1.1 4.7-2.4 7.6-3.7l4.5-2a429.9 429.9 0 0 1 27.8-11.3l6.3-2.3 6.6-2.2 3.3-1.1 1.7-.5 1.7-.6 6.7-2 3.4-1 3.4-.9 6.7-1.9 6.7-1.7 6.5-1.6 6.3-1.5 6.1-1.4a1729 1729 0 0 1 20.7-4.3l3.9-.8 3.3-.8c4-1 6.3-1.8 6.1-2.5-.1-.6-2.6-.9-7-.9h-3.6l-4.2.3c-3 .2-6.4.4-10.1.8l-11.9 1.4-6.5 1-6.8 1.1-7 1.3-7.1 1.5-7.2 1.6-3.6.9-3.6.9-7.2 1.9-1.8.4-1.8.6-3.5 1-7 2.1-6.8 2.3c-8.9 2.9-17.2 6.1-24.4 9l-5.2 2.3-4.8 2.1c-3.1 1.3-5.7 2.6-8.1 3.8l-6 3c-1.6.8-2.8 1.4-3.5 1.9-3.1 1.6-6.2 3.3-9 5l-4 2.7-1.8 1.3-1.6 1.3c-4 3.2-5.7 6.2-2.8 8z"/><path fill="url(#i)" d="M123.8 556.2c3.6 1.5 8.5-.6 13.9-4.4l4.2-3 4.4-3.6 9.1-7.6 3.5-2.8 5.9-4.6c2.3-1.8 4.9-4 7.9-6.1l4.7-3.5 5.1-3.8a643.3 643.3 0 0 1 52.1-33.4l3.6-2 3.6-2.1 7.2-4 7.2-3.9 7-3.7 6.9-3.5 6.6-3.4a831 831 0 0 1 12.1-6c3.8-1.8 7.2-3.4 10.2-5l4.2-2 3.6-2c4.2-2.2 6.4-3.7 5.9-4.3-.5-.5-3.6 0-8.6 1.4l-4.2 1.3-4.8 1.6-11.4 4-13.2 5.3c-2.4.9-4.7 2-7.1 3-2.4 1-4.9 2-7.4 3.2l-7.5 3.5-7.7 3.6-7.7 3.9-3.9 2-3.8 2-7.6 4-1.9 1-1.9 1.1c-1.2.8-2.5 1.5-3.7 2.1l-7.4 4.2c-2.4 1.5-4.7 3-7.1 4.3a508.1 508.1 0 0 0-25.3 16.5c-1.9 1.2-3.6 2.5-5.3 3.7l-4.9 3.6c-3.2 2.2-5.8 4.4-8.3 6.2l-6.1 4.7-3.6 3a112.3 112.3 0 0 0-16.5 15.4c-3.8 4.7-5.3 8.5-2 10z"/><path fill="url(#j)" d="M261.7 591.3c3.9 1.2 7.1 0 9.8-2.1 1.3-1 2.7-2.4 4-3.8l3.8-4.4 1.4-1.7c.6-.8 1.5-1.7 2.5-2.7l7.5-7.8c6.1-6 14.3-13.2 23.1-20 8.7-6.8 18-12.9 24.9-17.6l4.7-3.2c1.4-1 2.6-1.8 3.5-2.6 1.8-1.5 2.6-2.7 2.1-3.2-.6-.6-2.4-.4-5.2.3a141.4 141.4 0 0 0-10.9 3.9 192.9 192.9 0 0 0-55.6 36.1 175.5 175.5 0 0 0-11 11l-1.6 1.8c-1.3 1.5-2.7 3.1-3.8 4.7a16.6 16.6 0 0 0-2.5 4.6c-1 3.2-.4 5.6 3.3 6.7z"/><path fill="url(#k)" d="M402.1 713.6c4.3-.2 6.1-3.3 6.8-7.6l.4-3.5.1-3.8-.1-8v-3l.1-5 .3-6.8.3-3.8.3-4.2c1-11.5 3.4-25.7 6.9-39.5a370 370 0 0 1 11.8-37.1c.9-2.5 1.8-4.8 2.4-6.9a82 82 0 0 0 1.7-5.3c.8-3 .8-4.8-.1-5-.9-.2-2.6 1.2-4.8 3.8-1.1 1.4-2.5 3-3.8 4.9l-4.3 6.6a205.3 205.3 0 0 0-26.2 77.8l-.5 4.2a51 51 0 0 1-.4 4c-.3 2.6-.3 4.9-.4 7l-.2 5.1v3.1a56.8 56.8 0 0 0 1.8 15.8c1.5 4.5 3.9 7.4 7.9 7.2z"/><path fill="url(#l)" d="M559.1 683.1c8.6 0 8.4-7.6 8.4-14.4 0-6.9-.3-75-8.4-75-7.6 0-8.4 68.1-8.4 75 0 6.8.4 14.4 8.4 14.4z"/><path fill="url(#m)" d="M669.3 708.8c4.3 0 6.5-3.3 7.6-8.2a59.2 59.2 0 0 0 .8-8.3c.1-3-.1-6.1-.3-9.1l-.2-3.5-.5-5.7c-.2-2.3-.4-4.8-.9-7.6l-.6-4.4-.7-4.8c-2.2-13-6.2-29.2-11.9-44.6a224 224 0 0 0-24.6-48.2l-4.2-5.4c-2.5-3-4.3-4.4-5.3-4.2-.9.2-.7 2.2.4 5.5l2.1 5.8a440 440 0 0 1 17.6 48.5 320 320 0 0 1 9.6 43.8l.6 4.6.5 4.3c.4 2.7.5 5.2.7 7.4.2 2.2.4 4 .4 5.6l.2 3.4.5 8.9.4 4.2.6 3.8c1.1 4.8 3.1 8.1 7.2 8.2z"/><path fill="url(#n)" d="M854.8 668.3c4.2-.6 5.1-4 4.4-8.7l-.3-1.8-.6-2-1.4-4a77 77 0 0 0-3.8-8.3l-1.6-3.1-2.8-5.2c-1.1-2-2.3-4.3-3.9-6.7l-2.4-3.9a242.4 242.4 0 0 0-16.5-22.6l-4.1-4.9-4.4-4.8-2.2-2.5-1.1-1.2-1.2-1.2a330 330 0 0 1-4.8-4.8l-2.4-2.4-2.5-2.3-5-4.5-5.1-4.3-5-4.2-5.1-3.8-4.9-3.7-9.3-6.4a435 435 0 0 0-8.3-5.2l-3.6-2-3.2-1.6c-3.9-2-6.4-2.8-7.1-2.3-.7.4.6 2 3.4 4.6l2.3 2.1 2.8 2.5 6.8 5.7 7.9 7 4.2 3.9 4.4 4 4.4 4.3 4.5 4.4 4.4 4.6 2.2 2.3 2.1 2.4 4.3 4.7 1.1 1.2 1 1.1 2 2.5 4 4.8 3.7 4.8a231 231 0 0 1 12.6 18l2.5 4 2.2 3.7c1.5 2.4 2.6 4.6 3.7 6.6l2.6 4.9a99 99 0 0 1 1.5 3c1.3 2.6 2.7 5.3 3.9 8a40 40 0 0 0 2 3.7l1 1.8 1 1.6c2.6 4 5.8 6.8 9.7 6.2z"/><path fill="url(#o)" d="M1007.2 564.8c3.5-1.6 2.4-5-1-9.2l-1.4-1.5-1.6-1.7-3.6-3.3c-2.5-2.3-5.5-4.6-8.3-6.7l-3.3-2.6-5.6-4-7.5-5.2-4.5-3-4.9-3.1A366 366 0 0 0 942 511l-6.6-3.4-6.9-3.4-3.5-1.6-1.7-.9-1.8-.7-7.2-3.2-3.6-1.6-3.6-1.4-7.2-3-7.2-2.6-7-2.6-6.9-2.3c-2.3-.7-4.4-1.5-6.6-2l-12.3-3.5a435 435 0 0 0-10.6-2.6l-4.5-1-3.9-.6c-4.7-.7-7.5-.8-7.9-.2-.4.6 1.8 1.7 5.8 3.4l3.4 1.3 4 1.5 9.6 3.6 11.3 4.3 6.1 2.5 6.4 2.5 6.5 2.9 6.7 2.8 6.7 3.1 3.4 1.6 3.3 1.6c2.2 1.2 4.4 2.2 6.7 3.3l1.7.8 1.6.9c1.1.6 2.2 1 3.2 1.7 2.2 1 4.3 2.2 6.4 3.3l6.2 3.5a366.8 366.8 0 0 1 43.2 28.2c1.4 1 2.4 2 3.1 2.5l8.2 6.3 4 3 2 1.2 1.9 1.3c5 3.1 9.5 4.8 12.8 3.3z"/><path fill="url(#p)" d="M1076.4 372.9c.6-2.8-3.4-4.5-9.7-5.7l-5-.7-5.6-.6c-3.9-.3-7.9-.4-11.9-.6l-4.5-.2c-2 0-4.5 0-7.5-.2h-15.6l-6.2.1a547 547 0 0 0-58.6 4.4l-3.8.5-3.8.5-7.4 1.1-14.2 2.5c-4.5 1-8.9 1.8-13 2.8l-11.4 2.7-9.4 2.7-7 2.4c-3.8 1.5-5.7 2.6-5.4 3.2.3.6 2.9.5 7.2 0l7.6-1c2.9-.4 6.2-1 9.7-1.4 14.3-2.2 33.4-5 53.2-6.7a698 698 0 0 1 56.6-3h11.4l9.5.2a667.9 667.9 0 0 1 11.5.4l11.4.4h10.4c6.4-.2 10.9-1.2 11.5-3.8z"/><path fill="url(#q)" d="M984.4 264.9c-.9-2.8-3.7-3.8-7.4-4a73 73 0 0 0-12.4 1.6c-.5.3-1.3.4-2.4.6l-3.9 1a199.9 199.9 0 0 0-39.8 13.5 124.9 124.9 0 0 0-26.6 16.4l-2.3 2.5c-1.1 1.4-1.4 2.5-.7 3 .7.4 2.2.1 4.4-.5 1.1-.3 2.3-.9 3.7-1.4l4.6-1.9c6.6-2.8 15.3-6.7 24.7-10.1a283 283 0 0 1 41.3-11.8l2.2-.5 5.8-1.2a39 39 0 0 0 5.1-1.6c2.7-1.4 4.5-3 3.7-5.6z"/><path fill="url(#r)" d="M934.9 136.8c-2.1-2.5-7.4-2-14.2-.3l-2.6.7-2.7 1-5.6 2-2.9 1.3-1.4.5-1.4.7-5.6 2.6c-.9.4-2.4 1-4.2 2-1.9.8-4.1 2-6.7 3.3-2.6 1.4-5.7 2.9-8.8 4.7l-4.9 2.8-2.6 1.5-2.6 1.6c-7.1 4.3-14.9 9.4-22.4 15l-5.7 4.3c-1.9 1.4-3.7 3-5.5 4.5l-2.7 2.3-1.4 1.1-1.3 1.2-5.2 4.8-2.5 2.3-2.4 2.4-4.7 4.8-4.3 4.8-4.1 4.8-3.6 4.6-1.7 2.2-.8 1.2-.8 1c-2 3-3.9 5.8-5.4 8.4a111.6 111.6 0 0 0-5.1 10.2l-1 2.6c-1.1 3.2-1.2 5-.3 5.3.9.2 2.7-1.3 5.1-4l2-2.3c.7-.9 1.4-1.8 2.3-2.7l5.4-6.5 6.7-7.6.9-1 1-1a38 38 0 0 1 2-2.1l4-4.3 4.4-4.3 4.6-4.5 4.9-4.4 2.5-2.2 2.6-2.2 5.2-4.3 1.3-1.1 1.4-1a68 68 0 0 1 2.8-2.2l5.5-4.1 5.6-4c7.4-5.2 15-9.8 21.8-14l2.5-1.4 2.5-1.4 4.8-2.6c3-1.7 5.9-3.1 8.4-4.4l6.4-3.2 4-1.9 5.3-2.5 1.3-.6 1.3-.6a65.7 65.7 0 0 0 7.5-3.6l4.4-2.3c5.5-2.8 8.6-5.6 6.7-8z"/><path fill="url(#s)" d="M785.5 126c-3.2-2-7.9-.4-13.2 2.7-.7.3-1.3.7-2 1.2l-2 1.4-4 3c-2.7 2.2-5.2 4.6-7.7 6.9l-2.9 2.6-4.4 4.5c-1.7 1.7-3.7 3.7-5.7 6l-3.2 3.5-3.3 3.9c-4.4 5.3-9.1 11.4-13.4 18l-3.2 5-3 5-1.5 2.7-.7 1.3-.7 1.3-2.6 5.3-1.3 2.6-1.1 2.6-2.2 5.3c-.7 1.7-1.2 3.4-1.8 5.2l-1.7 5-1.3 5-.6 2.3-.3 1.2-.2 1.2-1.5 8.6c-.3 2.6-.4 5-.5 7.2v3l.2 2.6c.3 3 1 4.8 2 4.9 1 0 2-1.7 3.2-4.6l.9-2.4 1-3 2.4-6.8 3-8.2.4-1 .5-1.2.9-2.2 1.9-4.7 2.2-4.8 2.3-5 2.6-4.8 1.3-2.5 1.4-2.5 2.9-5 .7-1.3.8-1.2 1.6-2.4 3.1-4.9 3.3-4.7a255 255 0 0 1 13.4-17c1-1.3 2.2-2.5 3.2-3.6l3.1-3.4c1.9-2.1 3.9-4 5.5-5.6l4.3-4.2 2.7-2.5 7.1-6.6 3.3-3.1 1.5-1.5 1.4-1.5c3.5-3.9 4.9-7 1.9-8.8z"/><path fill="url(#t)" d="M988.2 184.2c-2.2-2.4-6.3-2.4-11.3-1.3-5 1.2-10.7 3.6-16.1 5.9-1.3.6-4.2 1.7-8.1 3.5a425 425 0 0 0-51.1 26.8 274.2 274.2 0 0 0-36 26.2 65.6 65.6 0 0 0-3.5 3.5c-1.8 2-2.4 3.4-1.7 3.8.7.4 2.7-.2 5.5-1.5l5-2.5 6.2-3.5c9.1-5.1 21-12.1 33.7-19 12.7-6.7 26-13.3 36.9-18.4l14.1-6.3 7.9-3.4c5.2-2.3 10.7-4.6 14.5-7 4.1-2 6-4.5 4-6.8z"/><path fill="url(#u)" d="M876.9 101c-2.3-2.3-5.1-2.8-8.2-2.3-3 .5-6.2 2.1-9 3.6l-1.7.9-2.6 1.4a110.2 110.2 0 0 0-24.6 18.4 59.5 59.5 0 0 0-11.4 15.2 31 31 0 0 0-1.2 3l-.5 2.4c-.1 1.4.3 2.2 1.2 2.5.9.3 2.1-.2 3.6-1.1l2.4-1.7 2.8-2.3c4-3.4 9-8 14.7-12.3a166.1 166.1 0 0 1 24-15.6l2.4-1.3 1.5-.8c2.6-1.4 5.3-2.7 6.9-4.3 1.4-1.6 1.9-3.5-.3-5.7z"/><path fill="url(#v)" d="M788.3 35.6c-2.8-2.2-6.8-1.7-11.3 0a82.2 82.2 0 0 0-6.9 3.5l-6.8 4.5-2.5 1.8-3.9 3c-1.5 1.2-3.3 2.5-5.1 4.1L749 55l-3 2.7c-4 3.6-8.2 8-12.2 12.6l-3 3.5-2.8 3.7-1.4 1.8-.7 1-.6.9-2.5 3.8-1.2 1.9-1.1 1.9-2.1 3.8c-.7 1.2-1.2 2.5-1.8 3.8l-1.7 3.7-1.4 3.6-1.2 3.4-1.6 6.3c-.3 2-.6 3.8-.7 5.4l-.1 2.2.1 2c.2 2.2.8 3.6 1.8 3.7.9 0 2.1-1.2 3.4-3.3l1-1.7 1.1-2 2.5-5 3.1-5.8 1.8-3.1 1.9-3.3 2.1-3.4 2.2-3.4a159.7 159.7 0 0 0 3.6-5.2l1.3-1.7 2.7-3.5.7-.9.7-.8 1.4-1.7 2.9-3.4 3-3.2c4-4.2 8.1-8 12-11.5l2.8-2.4 2.7-2.2c1.7-1.5 3.4-2.7 4.8-3.8l3.7-2.7 2.3-1.7 6.1-4.2a68 68 0 0 0 2.8-2.1l2.4-2c2.9-2.5 4.1-5 1.5-7z"/><path fill="url(#w)" d="M232.6 98c-.7 2.9 1.4 4.5 4.7 5.6 1.7.6 3.6 1 5.7 1.4l6.5 1.1 2.5.4 4 .8a456 456 0 0 1 42.7 10.3c10.7 3.1 20.9 6.7 28.6 9.2 1.9.7 3.7 1.3 5.3 1.7 1.6.5 3 1 4.3 1.2 2.5.6 4.2.7 4.8.2.6-.5 0-1.5-1.6-2.9l-3.1-2.4-4.4-2.8a177 177 0 0 0-27.4-12.6 278.8 278.8 0 0 0-44.6-12.5l-4.3-.9-2.7-.4c-2.3-.4-4.7-.8-7-1-2.3-.2-4.5-.4-6.5-.3-3.9.4-6.9 1.3-7.5 4z"/><path fill="url(#x)" d="M86.6 160.5c-.5 2.8 1.7 4.4 5.1 5.4 3.4 1 8 1.4 12.3 2 1.1 0 3.4.3 6.6.8l11.9 1.6c9.3 1.4 20.7 3.4 31.8 5.7 11.1 2.2 21.9 4.6 30 6.3 4.1.9 7.5 1.5 10.1 1.8 2.6.3 4.2.2 4.7-.4.4-.5-.4-1.4-2.3-2.7a66.2 66.2 0 0 0-8.5-4.2c-7.4-3.1-17.9-6.7-29.1-9.7a373 373 0 0 0-45.1-9.2l-6.9-.9c-4.5-.6-9.4-1-13.3-.6-4 .3-6.8 1.5-7.3 4z"/><path fill="url(#y)" d="M26.1 380.3c2.5 2.3 7 2 12.3.5l4.2-1.2A81 81 0 0 0 47 378l9.2-3.4 3.5-1.3 5.9-2c2.3-.8 4.9-1.8 7.9-2.6l4.6-1.5 5-1.5c13.8-4 31.6-8.4 49.4-11.7l3.3-.7a66964324390299 0 0 0 1 16.4-2.7l6.4-.9 12.1-1.6 10.8-1.3 9.1-1 3.8-.5 3.2-.4c3.9-.6 6.1-1.3 6.1-2a44.9 44.9 0 0 0-9.6-1.8l-3.9-.1-9.5-.1c-3.5 0-7.3 0-11.3.2l-12.7.7-6.7.6-6.9.7-7 .8a53.2 53.2 0 0 0-7 1c-2.4.4-4.7.8-7.1 1l-1.8.3-1.8.4-3.5.6-6.9 1.3-6.8 1.4c-8.9 1.8-17.3 4-24.6 6l-5.3 1.4-4.9 1.5a292.8 292.8 0 0 0-18.2 6c-3.2 1.3-6.6 2.4-9.5 3.8l-4.3 2-3.7 2c-4.6 3-6.9 5.5-4.6 7.7z"/><path fill="url(#z)" d="M63 524.3c3.8 1.3 7.3 0 10.4-2.4 1.5-1.2 3.2-2.6 4.7-4.2l4.7-4.9 1.8-1.8 3.1-3a293.3 293.3 0 0 1 38-30 473.6 473.6 0 0 1 30.9-18.4l5.9-3.3 4.4-2.6c2.4-1.6 3.5-2.7 3-3.3-.5-.5-2.5-.4-5.8.3l-5.7 1.5a204 204 0 0 0-42.5 19A235.8 235.8 0 0 0 70.6 505a48.5 48.5 0 0 0-9.9 12.3c-1.5 3.1-1.3 5.8 2.3 7z"/><path fill="url(#A)" d="M160.5 632.6c4.2.5 7.1-1.6 9.4-4.8l1.6-2.7 1.5-3 2.9-6.3 1.1-2.4 2-3.9 2.8-5.2 1.7-3 1.9-3.1c5.3-8.8 13-19.5 21.6-29.5a337 337 0 0 1 25.6-26.4l5-4.8 3.7-3.7c1.9-2.2 2.7-3.6 2-4.1-.7-.5-2.8.2-5.9 1.7-1.5.8-3.4 1.7-5.4 2.9l-6.5 4a204.3 204.3 0 0 0-57.4 59l-1.9 3.2a80 80 0 0 0-3 5.3L161 610l-1.2 2.6c-1 2.1-2.1 4.4-2.8 6.7l-1 3.2c-.3 1-.5 2-.5 3-.1 3.9 1.1 6.6 5 7.2z"/><path fill="url(#B)" d="M360.9 598.7c4.2.5 6.9-1 8.7-3.4a22 22 0 0 0 2.4-4l2-4.6.8-1.8 1.4-2.8c1-2.3 2.6-5 4.4-8.3 3.7-6.4 9-14.2 15.1-21.6 6-7.4 12.8-14.3 17.9-19.5 1.3-1.4 2.5-2.5 3.4-3.7l2.5-2.8c1.3-1.7 1.7-2.9 1-3.3-.7-.5-2.4 0-4.8 1a64.8 64.8 0 0 0-9.2 4.8 135.3 135.3 0 0 0-46.2 49.8l-1.5 3.1-.8 2c-.7 1.6-1.5 3.3-1.9 5-.4 1.6-.8 3.1-.7 4.6.1 3 1.5 5 5.5 5.5z"/><path fill="url(#C)" d="M266.6 673.8c7.5 2.7 11.4-2 15-6.2 3.6-4.2 39.6-46.4 32.6-49-6.6-2.5-43.6 39.4-47.2 43.6-3.6 4.2-7.4 9-.4 11.6z"/><path fill="url(#D)" d="M920.8 615.6c4.1-1 5-3.3 4.5-6.3-.3-1.5-1.1-3-1.9-4.8-.9-1.7-2-3.4-3.2-5l-1.3-2-2.3-3a174.2 174.2 0 0 0-63.4-52c-1.7-.9-3.4-1.4-4.7-1.9-2.7-1-4.6-1.2-5.2-.7-.6.4.1 1.6 1.7 3.3a67.4 67.4 0 0 0 7.5 6.4c6.3 5.1 14.8 12 22.5 19.4a229 229 0 0 1 26.6 30.3l2.1 2.9 1.2 1.7 3.2 4.7c1.1 1.5 2.3 2.9 3.5 4a9.5 9.5 0 0 0 9.2 3z"/><path fill="url(#E)" d="M763.8 685.5c4.3-.1 6.2-2.2 7-5.3.4-1.6.3-3.3.2-5.2-.1-1.8-.5-3.8-.8-5.6l-.4-2.2-.8-3.5a138.5 138.5 0 0 0-15.3-37.2 126.6 126.6 0 0 0-18.3-23.7l-4.3-4c-1.3-1.2-2.6-2-3.7-2.9-2.2-1.5-3.9-2.2-4.7-1.9-.8.4-.7 1.6.2 3.6.4 1 1.1 2.2 1.8 3.5l2.5 4.5c3.8 6.5 8.9 15 13.1 24a162.8 162.8 0 0 1 12.2 35.7l.7 3.4.4 2 1.1 5.3c.4 1.7 1 3.4 1.6 4.8 1.2 2.9 3.5 4.9 7.5 4.7z"/><path fill="url(#F)" d="M496.8 587.1c3.6-.6 5.2-4 5.7-8.9.2-2.4.4-5.1.3-8l-.1-8.6-.1-3.3v-5.5a473.4 473.4 0 0 1 3.7-59c1.8-15 4.5-29.5 6.4-40.5l1.2-7.5c.4-2.3.7-4.2.8-5.9.3-3.3.2-5.5-.6-6-.8-.4-2 1-3.5 3.7-.7 1.4-1.7 3-2.5 5.1l-2.8 7c-4 10.5-8 25.2-10.9 40.7a346.5 346.5 0 0 0-6 62.3v5.8l.2 3.6c0 3 .1 6.2.4 9.2.3 3 .6 5.8 1.3 8.3 1.2 5 3.2 8 6.5 7.5z"/><path fill="url(#G)" d="M694.7 570.6c4.3-.3 6-2.5 6.4-5.7.2-1.5 0-3.3-.3-5.1-.3-1.9-.9-3.8-1.5-5.6l-.6-2.1a113.9 113.9 0 0 0-5.4-13.5 136.5 136.5 0 0 0-42.9-52c-1.5-1-3-2-4.2-2.6-2.5-1.3-4.2-1.9-5-1.5-.8.4-.4 1.6.8 3.6.6 1 1.4 2 2.4 3.3l3.3 4.2c4.8 6.1 11.2 14.3 16.7 23a178 178 0 0 1 16.9 34.6l1.1 3.2.6 2 1.6 5.3c.6 1.7 1.3 3.3 2.1 4.7a8 8 0 0 0 8 4.2z"/><path fill="url(#H)" d="M777 495c3.3-4.3 3.8-8.5 3-12.6-1-4.2-3.2-8-5.5-11.6-.5-1-12.7-17.7-14.3-20.2a165 165 0 0 0-23.8-29.3 50.1 50.1 0 0 0-17.7-11.4c-2.4-.7-4.5-.8-6-.4a3.8 3.8 0 0 0-2.7 3.2c-.3 1.7.2 3.5 1.2 5.4 1 2 2.7 4.3 4.6 6.8 3.8 4.9 9 10.8 14.1 17.4a980 980 0 0 1 25.4 35c2 3.2 3.8 6 5 8.2 1.5 2.2 2.3 3.9 2.9 4.5 1.8 3 3.7 6.3 6 7.6 2 1.4 4.7 1.3 7.8-2.7z"/><path fill="url(#I)" d="M999 448.1c1.7-2.6-1.2-4.8-6.3-6.9l-4.2-1.4-4.8-1.3a216.2 216.2 0 0 0-14.3-3.1l-6.5-1.2a290.6 290.6 0 0 0-13.8-2.2l-5.5-.8c-15.2-2-34.5-3.6-53.3-3.8h-13.9l-13.4.5c-4.3.3-8.4.5-12.3 1a260 260 0 0 0-19.9 2.6c-2.7.3-5 .9-6.8 1.3-3.7.9-5.7 1.7-5.6 2.3.2.6 2.5 1 6.4 1h16l10.7-.2h12l12.9.3 6.7.2 3.4.2a539.4 539.4 0 0 1 64 6.8c3.1.4 5.8 1 8.3 1.4l6.2 1.1 3.8.8 9.8 2 4.7.9 4.4.5c5.3.8 9.7.4 11.3-2z"/><path fill="url(#J)" d="M1104.3 320.8c.5-2.8-2.9-4.4-8.1-5.3-2.6-.6-5.6-.8-8.8-1-3.2-.3-6.5-.3-9.8-.4h-9.9c-4.8 0-11 0-18 .2-14 .5-31.5 1.7-48.2 4a358.7 358.7 0 0 0-52 10.4c-2.3.6-4.2 1.3-5.8 2-3.1 1.2-4.7 2-4.4 2.7.3.6 2.5.8 6 .5l6.3-.6 8.1-1c11.9-1.4 27.7-3.5 44-4.8 16.3-1.4 33.1-2.2 46.5-2.4h17.2a156.8 156.8 0 0 1 9.5 0 448.9 448.9 0 0 0 18 0c5.2-.5 9-1.6 9.4-4.3z"/><path fill="url(#K)" d="M1138.3 431.5c2-2.5.4-4.6-3-6.4a72.3 72.3 0 0 0-13.2-4.8l-7.3-2A395.2 395.2 0 0 0 1027 405h-6.8c-2 0-3.8.2-5.2.3-2.9.3-4.6.8-4.7 1.4-.1.7 1.4 1.3 4.1 2l4.9 1 6.4 1.2c9.4 1.7 21.9 3.7 34.5 6.2a716 716 0 0 1 48.2 11.4l6.9 2c4.6 1.2 9.4 2.7 13.5 3.2 4.1.7 7.6.3 9.5-2z"/><path fill="url(#L)" d="M1078.3 551.6c3.9-1.3 4.3-3.7 3.2-6.6-.6-1.4-1.7-3-2.9-4.5-1.2-1.6-2.8-3.2-4.2-4.7l-1.7-1.8-2.9-2.8a170.6 170.6 0 0 0-37.7-27.2c-11-6.1-22.8-11.1-32.1-14.1l-6.5-2c-1.9-.5-3.7-.8-5.2-1-3-.6-4.8-.6-5.3 0-.5.5.6 1.6 2.7 3l4 2.3 5.3 2.8c7.7 4.1 18 9.7 27.5 16a233.5 233.5 0 0 1 33.5 26.4l2.7 2.6 1.6 1.6 4.2 4.3c1.4 1.4 2.9 2.6 4.3 3.7a10 10 0 0 0 9.5 2z"/><path fill="url(#M)" d="M1117.2 492.4c6.5-3.7 2.2-6.7-1.6-9.4-1-.6-4.1-2.8-8.5-5.4a177 177 0 0 0-16.2-8.5c-6-2.8-12.1-5.2-17.1-6.5-5-1.4-8.7-1.8-9.8-.7-1.1 1 .9 3 4.4 5.6 3.5 2.5 8.4 5.6 13.4 8.8 5 3.1 10 6.4 13.9 9l7.7 5.3c3.6 2.5 7.7 5.2 13.8 1.8z"/><path fill="url(#N)" d="M998.4 636.6c8.1-1.9 6.3-4.7 4.6-7.1a63.4 63.4 0 0 0-12.5-13.4 51 51 0 0 0-10.5-6.6c-3.3-1.4-6.1-1.9-7.6-1-1.4.8-.9 2.6.5 4.9 1.4 2.3 3.6 5 5.7 7.9a191.6 191.6 0 0 1 9 12.6c1.5 2.1 3.2 4.5 10.8 2.7z"/><path fill="url(#O)" d="M915 721.9c8.2-1.7 6.3-5.3 4.7-8.7-1.6-3.3-17.6-36.3-25.3-34.7-7.3 1.5 7.7 34.7 9.3 38 1.5 3.4 3.6 7 11.3 5.4z"/><path fill="url(#P)" d="M780.4 743.6c8.4-1.2 7.1-4.4 6.2-7.2-1-2.8-10.9-31.2-18.8-30-7.5 1 1.4 29.5 2.4 32.4.9 2.8 2.4 6 10.2 4.8z"/><path fill="url(#Q)" d="M1161.4 564.8c7.4-3 4.9-5.4 2.8-7.7-2.1-2.2-23-24.6-30-21.9-6.5 2.6 13.5 25.4 15.5 27.6 2.2 2.3 4.8 4.6 11.7 2z"/><path fill="url(#R)" d="M40.5 596.2c7.1 3.3 9.5.8 11.8-1.4 2.3-2.2 25-23.8 18.4-26.8-6.3-3-29.9 18.3-32.2 20.5-2.3 2.1-4.5 4.7 2 7.7z"/><path fill="url(#S)" d="M609 765.9c8.6-.2 8.2-5.2 8.1-9.5-.1-4.4-2-49-10-48.8-7.6.1-6.9 44.6-6.8 49 .2 4.4.7 9.4 8.7 9.3z"/><path fill="url(#T)" d="M482.1 739.7c4.3-.4 6-2.2 6.5-4.5.6-2.3 0-5.2-.4-8l-.5-4.1a159.3 159.3 0 0 1-.6-28.3c.4-7.3 1.4-14.4 1.9-19.8.3-2.7.3-4.9.2-6.5-.2-1.7-.7-2.7-1.7-2.9-.9 0-2.1.6-3.4 2a36.8 36.8 0 0 0-4.2 6.2 79.4 79.4 0 0 0-7.1 20.1 96.4 96.4 0 0 0-1.3 34.4c.4 2.8 1.1 6 2.6 8.2 1.6 2.3 4 3.6 8 3.2z"/><path fill="url(#U)" d="M309.4 748.8c4.3.3 6.6-1 8-3 1.4-2.1 1.9-4.9 2.5-7.4l1-4 1.9-7c1.6-5.6 3.9-12.5 6.5-19.1l7.3-18.1c1.9-5 2.6-8.4.8-9-1.7-.5-5.3 2.2-9.3 6.7-4.1 4.5-8.6 10.9-12.4 17.6a125.4 125.4 0 0 0-11.3 27l-1.1 4.2c-.7 2.7-1.1 5.7-.4 7.9.6 2.2 2.5 4 6.5 4.2z"/><path fill="url(#V)" d="M1089.2 631.9c8.3-1.6 6.6-4.8 5-7.5a75.7 75.7 0 0 0-11.9-15.5c-3.3-3.2-7-6-10.3-8-3.3-1.8-6.2-2.6-7.8-1.8-1.6.7-1.2 2.7.1 5.3 1.2 2.6 3.3 5.8 5.4 9l5.7 9.4 3 5.4c1.4 2.5 3.1 5.2 10.8 3.7z"/><path fill="url(#W)" d="M1190.4 471.8c5.9-4.1 2.4-6.1-.8-7.8l-7-3.5c-3.6-1.6-8.3-3.5-13.2-5.1a80 80 0 0 0-13.7-3.2c-4-.4-6.8 0-7.7 1.1-.8 1.2.8 2.7 3.5 4.4 2.7 1.7 6.5 3.7 10.4 5.7l10.8 5.7 6 3.4c2.9 1.5 6.2 3.1 11.7-.7z"/><path fill="url(#X)" d="M163.7 699.8c8.1 1.9 9.8-1.5 11.6-4.5l4-6.4 7.4-11c2.7-3.9 5.3-7.7 7-10.7 1.6-3 2.2-5.2.6-6-1.5-.7-4.6.4-8.3 2.7a68.5 68.5 0 0 0-11.7 9.5 108.7 108.7 0 0 0-14.5 17.8c-2.1 3.1-3.7 6.9 3.9 8.6z"/><path fill="url(#Y)" d="M6 337c4.4 5 8.2 3.3 11.8 2l7.7-2.5c3.9-1.4 8.8-3 13.6-4.5 4.8-1.6 9.6-3.2 13-4.6 3.5-1.4 5.6-2.8 5.1-4.1-.5-1.2-3.4-1.7-7.7-1.7-4.3 0-9.9.6-15.5 1.6s-11.2 2.3-15.6 3.5c-4.4 1.2-7.6 2.3-8.6 2.7-3.8 1.2-7.9 3.1-3.8 7.7z"/><path fill="url(#Z)" d="M9.3 470.9c3.9 1.2 6.4 1 8.2.2 1.8-.8 3-2.2 4.3-3.6l1.9-2 3.7-3.6c3-2.8 7.1-6 11.4-9.1 4.3-3.1 8.8-6 12.1-8.3 1.7-1.1 3-2.2 3.8-3 .8-1 1.1-1.7.6-2.3-.5-.5-1.6-.8-3.2-.7-1.7 0-3.8.4-6.2 1a89.3 89.3 0 0 0-38.3 22.2c-1.5 1.4-2.8 3.2-2.9 4.9-.2 1.7 1 3.2 4.6 4.3z"/><path fill="url(#aa)" d="M128.5 112.3c-1.1 2.8-.3 4.3 1.3 5.3s4 1.5 6.2 2a76.2 76.2 0 0 1 9.5 2.6c4.7 1.4 10.4 3.4 15.8 5.5 5.5 2.2 10.6 4.5 14.7 6.2 2 .9 3.9 1.5 5.4 1.8 1.5.4 2.7.4 3.5 0 .7-.4.8-1.2.5-2.3-.4-1-1.3-2.3-2.7-3.8-2.8-3-7.4-6.4-12.9-9.5a109.6 109.6 0 0 0-23.9-9.8l-3.9-1c-2.6-.7-5.4-1.2-7.9-1-2.6.4-4.6 1.4-5.6 4z"/><path fill="url(#ab)" d="M23.4 203.7c1 2.5 2.8 3.5 4.7 3.8 1.9.3 4.1 0 6.3-.3a88.8 88.8 0 0 1 9.1-.8c4.6-.3 10.5-.4 16.2-.3 5.8 0 11.4.4 15.8.5 2.2 0 4.1 0 5.5-.2 1.4-.2 2.4-.5 2.7-1 .3-.5-.1-1.2-1.2-1.9a24 24 0 0 0-4.7-2.2 77 77 0 0 0-16.7-3.6 133 133 0 0 0-29.3-.3c-2.5.3-5.1.8-6.8 1.7-1.7.8-2.6 2.3-1.6 4.6z"/><path fill="url(#ac)" d="M285 45c-1.1 2.8-.3 4.4 1.3 5.3 1.6 1 4 1.5 6.2 2A76.2 76.2 0 0 1 302 55c4.7 1.4 10.4 3.4 15.8 5.6 5.5 2.1 10.6 4.4 14.7 6.1 2 .9 3.9 1.5 5.4 1.9 1.5.3 2.7.4 3.5-.1.7-.4.8-1.2.5-2.2-.4-1-1.3-2.4-2.7-3.8-2.8-3-7.4-6.5-12.9-9.6a109.6 109.6 0 0 0-23.9-9.7c-1.9-.6-3.3-1-3.9-1-2.6-.7-5.4-1.3-7.9-1-2.6.3-4.6 1.4-5.6 4z"/><path fill="url(#ad)" d="M879.8 34.6a8.2 8.2 0 0 0-7.7-2.5c-2.8.5-5.6 1.8-8.2 3.1l-3.9 2.1A105.3 105.3 0 0 0 837.9 54a48.2 48.2 0 0 0-9.9 13.7l-1 2.7-.3 2.2c0 1.2.5 2 1.4 2.3.9.3 2.1-.1 3.4-1a34 34 0 0 0 4.7-3.5c3.6-3 8.1-7 13.1-10.9a148.8 148.8 0 0 1 21.3-13.7l3.5-1.8c2.3-1.2 4.7-2.5 6-3.9 1.6-1.6 1.8-3.3-.3-5.5z"/><path fill="url(#ae)" d="M955.8 85.1c-1.1-2.7-2.6-3.8-4.5-4.2-1.8-.4-3.8.1-5.7.6a73.9 73.9 0 0 0-19.8 7.8 30 30 0 0 0-8.7 7.1c-1.7 2.3-2 4-.4 5 1.5.7 4 .3 7-.7 3.1-1 6.7-2.4 10.5-3.8a170.6 170.6 0 0 1 17.3-5.1c1.5-.4 3-.8 4-1.7.9-.9 1.3-2.4.3-5z"/><path fill="url(#af)" d="M1058.4 147.6c-1.3-2.7-3.1-3.8-5.2-4a42.8 42.8 0 0 0-9.7 2 78.3 78.3 0 0 0-19.3 8.8c-4.4 2.7-8 5.8-10 8.3-2 2.6-2.4 4.7-.8 5.5 1.5.8 4.3 0 7.7-1.4 3.4-1.4 7.6-3.4 12-5.1 4.4-1.9 8.9-3.5 12.7-4.7l4.8-1.4 2.7-.8c1.8-.5 3.6-1 4.8-2 1-1.2 1.4-2.8.3-5.2z"/><path fill="url(#ag)" d="M1187.1 322.7c1.7-2.6 1.4-4.2.1-5.3-1.3-1-3.7-1.5-5.8-2l-3.3-.7a105.2 105.2 0 0 0-23.1-1.5c-5.9.2-11.6 1-15.6 2.2-4 1.1-6.3 2.6-5.9 3.8.4 1.2 3.2 1.8 7.1 2.2l13.9 1.2a164.3 164.3 0 0 1 19 2.8c1.3.2 2.3.4 2.7.6 1.8.3 3.7.7 5.5.4 2-.3 3.8-1.3 5.4-3.7z"/><path fill="url(#ah)" d="M16.6 250c.2 5.7 13.1 5.4 24.6 5.5l24.6.1c12.4.1 27.9.5 43 .8 15.1.4 29.9 1 41 1.1 11.1.1 18.5-.1 18.8-1.4.3-1.3-6.7-3-17.6-4.6a608.4 608.4 0 0 0-41-4.4 983.8 983.8 0 0 0-68.7-2.7c-11.8 0-24.9.4-24.7 5.7z"/><path fill="url(#ai)" d="M391.5 47.5c-6.1 4-.4 7.5 4.3 10.9l10.3 7 17.8 12.4c6.3 4.3 12.4 8.6 17.4 11.6 5 3 8.8 4.7 10.4 4 1.5-.8.1-3.7-3.1-7.7s-8.2-9-13.8-13.9c-5.5-5-11.6-9.8-16.6-13.6-5-3.9-9-6.6-10.2-7.5-4.9-3.4-10.9-7-16.5-3.2z"/><path fill="url(#aj)" d="M1093.4 199.5c-1.5-5.6-9.2-4.6-16-3.5-1.7.3-7.2 1.1-14.5 2.5-7.2 1.4-16.1 3.4-24.6 5.8-8.4 2.3-16.4 5-22 7.4-5.6 2.5-8.8 4.6-7.9 5.8.8 1.1 5.3.8 11.6-.2s14.6-2.7 23.1-4.2a1020.4 1020.4 0 0 1 38-6.3c6.5-1 13.7-2.1 12.3-7.3z"/><path fill="url(#ak)" d="M1150.2 256.6c.3-5.7-9.4-5.7-18.1-5.7l-18.5.2c-9.3.3-20.9.9-32.2 1.9-11.3.9-22.2 2.3-30.2 3.7-8 1.5-13 3-12.7 4.3.3 1.3 5.8 1.7 13.9 1.8 8.2 0 19-.2 30.1-.4 11.1-.2 22.4-.4 31.5-.4h18c8.5-.1 17.9-.2 18.2-5.4z"/><path fill="url(#al)" d="M1057.7 98.7c-1.4-2.7-4.3-3.5-7.8-3.3-3.5.2-7.5 1.2-11.3 2.4l-5.7 1.8a224.2 224.2 0 0 0-35.7 14.7c-8.5 4.4-16 9.3-20.9 13.3-2.4 2-4.3 3.8-5.3 5.2-1 1.4-1.3 2.3-.5 2.8.7.5 2.2.3 4.2-.4 2-.6 4.7-1.8 7.8-3.1 6.2-2.8 14.3-6.6 23-10.2a346.8 346.8 0 0 1 39.9-14c3.5-1 7.2-2 9.7-3.5 2.6-1.4 4-3.3 2.6-5.7z"/><path fill="url(#am)" d="M665 3.2c-4.2.6-5.8 2.6-6.1 5-.1 1.3-.1 2.8.1 4.2l.8 4.5c.1.8.5 2.4.7 4.6.4 2.2.6 5 .9 8.2.5 6.5.3 14.6-.7 22.5l-.2 1.6-.2 1.4-.4 2.9-1 5.6-1.1 5.3-1.1 4.6a37 37 0 0 0-.9 4c-.2 1.2-.4 2.3-.4 3.2-.1 1.8.2 2.9 1.2 3.2.9.1 2.2-.6 3.8-2 .8-.8 1.7-1.7 2.5-2.8a46.2 46.2 0 0 0 5.4-8.4c.9-1.6 1.7-3.5 2.6-5.3l2.3-5.8 1-3 .5-1.6.4-1.6a92.3 92.3 0 0 0 2.3-33c-.2-2.3-.6-4-.7-4.8-.3-1.6-.6-3.3-1.2-4.8a12 12 0 0 0-2.1-4.2 8.3 8.3 0 0 0-8.4-3.5z"/><path fill="url(#an)" d="M471.4 5.6c-8.1 1.9-4.6 8-1.6 13.5 3 5.5 33.2 60.7 40.8 59 7.2-1.8-22-57.2-25-62.7-2.9-5.5-6.6-11.6-14.2-9.8z"/><path fill="url(#ao)" d="M1189.3 383.7c2.3-2.4 2.1-4 .8-5.4a17.5 17.5 0 0 0-6.2-3 177.4 177.4 0 0 0-29.5-7.2 112 112 0 0 0-18.8-1.4c-5.1.2-8.6 1-8.8 2.3-.2 1.2 2.7 2.4 7.1 3.7 4.4 1.3 10.4 2.8 16.3 4.3a363 363 0 0 1 16.6 4.9l9.2 3c2.1.8 4.4 1.6 6.7 1.6a8 8 0 0 0 6.6-2.8z"/><path fill="url(#ap)" d="M238.4 421.6c2.2 2.4 5.8 2.7 10 1.9 4.2-.7 9.1-2.5 13.8-4 1.2-.4 3.7-1.3 7.2-2.3a539.2 539.2 0 0 1 49.8-13.5c13.1-3 26.1-5.5 35.8-7.6l6.6-1.4 5-1.3c2.8-.9 4.3-1.6 4.1-2.3-.1-.6-1.9-1-5-1.1-1.5-.1-3.4-.2-5.5-.1l-7.1.3c-10.4.5-24.3 2.1-38.2 4.5a465 465 0 0 0-60.3 14.9c-4.9 1.6-10 3.5-13.4 5.5-3.1 2.1-4.8 4.3-2.8 6.5z"/><path fill="url(#aq)" d="M373 470.7c8.3 6.3 13.6 2.2 18.6-1a456.4 456.4 0 0 1 30.8-18.3c7-4 14.2-7.9 19.3-11.1 5.1-3.3 8.2-6 7-7.9-1.2-1.7-6-1.8-13-.5-6.8 1.2-15.5 3.9-24 7.1a225.6 225.6 0 0 0-35.6 17.8c-5.4 3.6-11 8-3.2 13.9z"/><path fill="url(#ar)" d="M588.3 537.5c4.6.3 6.9-2.6 8-7 1.1-4.4 1.1-10.1.9-15.5l-.3-8.2-1-14.9c-1-11.6-2.8-25.8-5.4-39.2a211.6 211.6 0 0 0-9.5-35c-3.5-8.9-6.7-14-8.6-12.6-2 1.3-1.7 8-.8 17.6 1 9.6 2.7 22.4 4 35.3 1.3 12.9 2.4 26.1 2.9 36.9l.5 13.7.3 7.5c0 4.9.2 10.1 1.3 14.2s3.4 7 7.7 7.2z"/><ellipse cx="139" cy="218.4" fill="url(#as)" rx="10.4" ry="6.8"/><ellipse cx="30" cy="290.4" fill="url(#at)" rx="11.9" ry="7.8"/><ellipse cx="261.4" cy="332.9" fill="url(#au)" rx="9.5" ry="6.2"/><ellipse cx="349.3" cy="227.4" fill="url(#av)" rx="10.2" ry="6.7"/><ellipse cx="378.1" cy="153.1" fill="url(#aw)" rx="9" ry="5.9"/><ellipse cx="233" cy="74.2" fill="url(#ax)" rx="7.6" ry="5"/><ellipse cx="396.2" cy="20.9" fill="url(#ay)" rx="13.2" ry="8.7"/><ellipse cx="617.2" cy="6.4" fill="url(#az)" rx="9.3" ry="6.1"/><ellipse cx="795.5" cy="94.8" fill="url(#aA)" rx="11.4" ry="7.5"/><ellipse cx="1100.5" cy="166.9" fill="url(#aB)" rx="13.2" ry="8.7"/><ellipse cx="1188.3" cy="283.8" fill="url(#aC)" rx="10.9" ry="7.2"/><ellipse cx="1209.3" cy="420" fill="url(#aD)" rx="11.7" ry="7.7"/><ellipse cx="1188.3" cy="514.4" fill="url(#aE)" rx="10.9" ry="7.2"/><ellipse cx="1133.2" cy="601.6" fill="url(#aF)" rx="5.4" ry="3.5"/><ellipse cx="1057" cy="672.1" fill="url(#aG)" rx="10.1" ry="6.6"/><ellipse cx="955.9" cy="662.9" fill="url(#aH)" rx="14.8" ry="9.7"/><ellipse cx="826.1" cy="717.5" fill="url(#aI)" rx="9.3" ry="6.1"/><ellipse cx="705.6" cy="735.3" fill="url(#aJ)" rx="8.6" ry="5.6"/><ellipse cx="554" cy="732.8" fill="url(#aK)" rx="10.9" ry="7.2"/><ellipse cx="488.7" cy="635.8" fill="url(#aL)" rx="10.9" ry="7.2"/><ellipse cx="350.3" cy="649.1" fill="url(#aM)" rx="10.9" ry="7.2"/><ellipse cx="244.6" cy="709.4" fill="url(#aN)" rx="9.3" ry="6.1"/><ellipse cx="109.3" cy="645" fill="url(#aO)" rx="9.3" ry="6.1"/><ellipse cx="7.5" cy="413.9" fill="url(#aP)" rx="7" ry="4.6"/><path fill="url(#aQ)" d="M211.9 439.4c0 2-2.4 3.5-5.4 3.5-3 0-5.4-1.5-5.4-3.5s2.4-3.6 5.4-3.6c3 0 5.4 1.6 5.4 3.6z"/><ellipse cx="244.1" cy="186" fill="url(#aR)" rx="5.2" ry="3.4"/><ellipse cx="90.6" cy="129.6" fill="url(#aS)" rx="9.3" ry="6.1"/><ellipse cx="1068.6" cy="122.5" fill="url(#aT)" rx="6.2" ry="4.1"/><ellipse cx="1140.1" cy="221.5" fill="url(#aU)" rx="7.8" ry="5.1"/><ellipse cx="903" cy="58.7" fill="url(#aV)" rx="7" ry="4.6"/><ellipse cx="1041.2" cy="445.2" fill="url(#aW)" rx="10.4" ry="6.8"/><ellipse cx="1014.2" cy="288.7" fill="url(#aX)" rx="8.3" ry="5.4"/><ellipse cx="989.4" cy="225.5" fill="url(#aY)" rx="8.3" ry="5.4"/><path fill="url(#aZ)" d="M793.4 185.3c0 2-2.4 3.5-5.4 3.5-3 0-5.4-1.5-5.4-3.5s2.4-3.5 5.4-3.5c3-.1 5.4 1.5 5.4 3.5z"/><ellipse cx="604.5" cy="171" fill="url(#ba)" rx="11.7" ry="7.7"/><ellipse cx="644.9" cy="531.9" fill="url(#bb)" rx="8.3" ry="5.4"/><ellipse cx="555" cy="564.6" fill="url(#bc)" rx="7.6" ry="5"/><ellipse cx="280.9" cy="508.9" fill="url(#bd)" rx="9.8" ry="6.4"/><path fill="url(#be)" d="M674.6 449.4c8.2-1.7 6.3-5.3 4.7-8.6-1.6-3.3-17.6-36.3-25.3-34.7-7.3 1.5 7.7 34.7 9.3 38 1.5 3.3 3.6 7 11.3 5.3z"/><use fill="#000" xlink:href="#bf"/><use fill="#1B1B1B" xlink:href="#bf"/></g></svg>
